# AST/ASF file generated using VICON BodyLanguage
# -----------------------------------------------
:version 1.10
:name VICON
:units
  mass 1.0
  length 0.45
  angle deg
:documentation
   .ast/.asf automatically generated from VICON data using
   VICON BodyBuilder and BodyLanguage model FoxedUp or BRILLIANT.MOD
:root
   order TX TY TZ RX RY RZ
   axis XYZ
   position 0 0 0  
   orientation 0 0 0 
:bonedata
  begin
     id 1 
     name lhipjoint
     direction 0.643822 -0.745931 0.170529 
     length 2.62041 
     axis 0 0 0  XYZ
  end
  begin
     id 2 
     name lfemur
     direction 0.34202 -0.939693 0  
     length 7.92179  
     axis 0 0 20  XYZ
    dof rx ry rz
    limits (-160.0 20.0)
           (-70.0 70.0)
           (-60.0 70.0)
  end
  begin
     id 3 
     name ltibia
     direction 0.34202 -0.939693 0   
     length 8.16326   
     axis 0 0 20   XYZ
    dof rx
    limits (-10.0 170.0)
  end
  begin
     id 4 
     name lfoot
     direction 0.0837341 -0.230058 0.969568   
     length 1.94455   
     axis -90 7.62852e-016 20   XYZ
    dof rx rz
    limits (-45.0 90.0)
           (-70.0 20.0)
  end
  begin
     id 5 
     name ltoes
     direction 1.5356e-011 -4.21695e-011 1   
     length 0.978804   
     axis -90 7.62852e-016 20   XYZ
    dof rx
    limits (-90.0 20.0)
  end
  begin
     id 6 
     name rhipjoint
     direction -0.656883 -0.73503 0.168037   
     length 2.65927  
     axis 0 0 0  XYZ 
  end
  begin
     id 7 
     name rfemur
     direction -0.34202 -0.939693 0   
     length 7.58746   
     axis 0 0 -20   XYZ
    dof rx ry rz
    limits (-160.0 20.0)
           (-70.0 70.0)
           (-70.0 60.0)
  end
  begin
     id 8 
     name rtibia
     direction -0.342117 -0.939657 0   
     length 8.27303   
     axis 0 0 -20   XYZ
    dof rx
    limits (-10.0 170.0)
 end
 begin
     id 9 
     name rfoot
     direction -0.0685862 -0.188439 0.979687   
     length 2.13088  
     axis -90 -7.62852e-016 -20   XYZ
    dof rx rz
    limits (-45.0 90.0)
           (-20.0 70.0)
  end
  begin
     id 10 
     name rtoes
     direction -1.53538e-011 -4.21514e-011 1   
     length 1.07326   
     axis -90 -7.62852e-016 -20   XYZ
    dof rx
    limits (-90.0 20.0)
  end
  begin
     id 11 
     name lowerback
     direction -0.0358974 0.997216 0.065354   
     length 1.87174   
     axis 0 0 0   XYZ
    dof rx ry rz
    limits (-20.0 45.0)
           (-30.0 30.0)
           (-30.0 30.0)
  end
  begin
     id 12 
     name upperback
     direction 0.0202028 0.998565 0.0495864   
     length 1.8684   
     axis 0 0 0   XYZ
    dof rx ry rz
    limits (-20.0 45.0)
           (-30.0 30.0)
           (-30.0 30.0)
  end
  begin
     id 13 
     name thorax
     direction 0.0366367 0.999163 0.0182199   
     length 1.87747   
     axis 0 0 0   XYZ
    dof rx ry rz
    limits (-20.0 45.0)
           (-30.0 30.0)
           (-30.0 30.0)
  end
  begin
     id 14 
     name lowerneck
     direction 0.0284381 0.999578 -0.00598196   
     length 1.84583   
     axis 0 0 0   XYZ
    dof rx ry rz
    limits (-20.0 45.0)
           (-30.0 30.0)
           (-30.0 30.0)
  end
  begin
     id 15 
     name upperneck
     direction -0.0888142 0.993333 -0.0734973   
     length 1.84467   
     axis 0 0 0   XYZ
    dof rx ry rz
    limits (-20.0 45.0)
           (-30.0 30.0)
           (-30.0 30.0)
  end
  begin
     id 16
     name head
     direction -0.0296474 0.999102 -0.0302696  
     length 1.86566  
     axis 0 0 0   XYZ
    dof rx ry rz
    limits (-20.0 45.0)
           (-30.0 30.0)
           (-30.0 30.0)
  end
  begin
     id 17 
     name lclavicle
     direction 0.933925 0.35714 -0.0153523  
     length 3.93442  
     axis 0 0 0   XYZ
    dof ry rz
    limits (-20.0 10.0)
           (0.0 20.0)
  end
  begin
     id 18 
     name lhumerus
     direction 1 -4.48967e-011 2.12044e-027   
     length 5.78174   
     axis 180 -30 -90   XYZ
    dof rx ry rz
    limits (-60.0 90.0)
           (-90.0 90.0)
           (-90.0 90.0)
  end
  begin
     id 19
     name lradius
     direction 1 -4.48972e-011 6.45701e-027   
     length 3.53992   
     axis 180 -30 -90   XYZ
    dof rx
    limits (-10.0 170.0)
  end
  begin
     id 20
     name lwrist
     direction 1 -4.48981e-011 1.70244e-026   
     length 1.76996   
     axis -1.1226e-014 90 90   XYZ
    dof ry
    limits (-180.0 0.0)
 end
  begin
     id 21 
     name lhand
     direction 1 -4.4879e-011 3.40615e-026   
     length 0.550243   
     axis -2.17265e-014 90 90   XYZ
    dof rx rz
    limits (-90.0 90.0)
           (-45.0 45.0)
  end
  begin
     id 22 
     name lfingers
     direction 1 -4.49029e-011 6.80911e-026   
     length 0.44362   
     axis -4.34526e-014 90 90   XYZ
    dof rx
    limits (0.0 90.0)
  end
  begin
     id 23
     name lthumb
     direction 0.707107 -6.34923e-011 0.707107   
     length 0.636952   
     axis -90 45 -1.62303e-014   XYZ
    dof rx rz
    limits (-45.0 45.0)
           (-45.0 45.0)
  end
  begin
     id 24 
     name rclavicle
     direction -0.950832 0.305106 0.0531883   
     length 3.96125  
     axis 0 0 0   XYZ 
    dof ry rz
    limits (-10.0 20.0)
           (-20.0 0.0)
  end
  begin
     id 25 
     name rhumerus
     direction -1 -4.48961e-011 -6.07392e-030  
     length 5.79352   
     axis 180 30 90   XYZ
    dof rx ry rz
    limits (-90.0 60.0)
           (-90.0 90.0)
           (-90.0 90.0)
  end
  begin
     id 26 
     name rradius
     direction -1 -4.48964e-011 5.97548e-027   
     length 3.37081   
     axis 180 30 90   XYZ
    dof rx
    limits (-10.0 170.0)
  end
  begin
     id 27 
     name rwrist
     direction -1 -4.49021e-011 1.7023e-026   
     length 1.68541   
     axis -1.1226e-014 -90 -90   XYZ
    dof ry
    limits (-180.0 0.0)
  end
  begin
     id 28
     name rhand
     direction -1 -4.48867e-011 3.40563e-026   
     length 0.679827   
     axis -2.17265e-014 -90 -90   XYZ
    dof rx rz
    limits (-90.0 90.0)
           (-45.0 45.0)
  end
  begin
     id 29
     name rfingers
     direction -1 -4.49024e-011 6.80917e-026   
     length 0.548094   
     axis -4.34526e-014 -90 -90   XYZ
    dof rx
    limits (0.0 90.0)
  end
  begin
     id 30
     name rthumb
     direction -0.707107 -6.3488e-011 0.707107   
     length 0.786956   
     axis -90 -45 1.62303e-014   XYZ
    dof rx rz
    limits (-45.0 45.0)
           (-45.0 45.0)
  end
:hierarchy
  begin
    root lhipjoint rhipjoint lowerback
    lhipjoint lfemur
    lfemur ltibia
    ltibia lfoot
    lfoot ltoes
    rhipjoint rfemur
    rfemur rtibia
    rtibia rfoot
    rfoot rtoes
    lowerback upperback
    upperback thorax
    thorax lowerneck lclavicle rclavicle
    lowerneck upperneck
    upperneck head
    lclavicle lhumerus
    lhumerus lradius
    lradius lwrist
    lwrist lhand lthumb
    lhand lfingers
    rclavicle rhumerus
    rhumerus rradius
    rradius rwrist
    rwrist rhand rthumb
    rhand rfingers
  end

#!OML:ASF H:\Terrain\Patient Classification 1\PaulMetrics\Match1Take2\PaulMetrics.ASF
:FULLY-SPECIFIED
:DEGREES
501
root -5.34064 18.1435 -2.73654 11.6135 29.2479 -0.570706
lowerback -5.86707 -1.34857 -4.77837
upperback -6.00408 -1.53138 2.82001
thorax -2.74154 -0.513187 5.56554
lowerneck -3.24429 9.98699 6.39068
upperneck 9.41079 14.3147 -11.2997
head 4.62889 6.82278 -3.64352
rclavicle -5.52124e-014 -1.27222e-014
rhumerus -57.0985 16.2986 -88.0558
rradius 42.8192
rwrist -9.50834
rhand -10.8191 -33.3335
rfingers 7.12502
rthumb 15.1947 -62.7556
lclavicle -5.52124e-014 -1.27222e-014
lhumerus -53.7651 -20.2852 93.9235
lradius 71.8074
lwrist 4.2774
lhand -18.2791 -8.67477
lfingers 7.12502
lthumb 8.001 21.1538
rfemur -35.9451 2.036 20.264
rtibia 31.2203
rfoot -6.95397 -13.7704
rtoes -12.344
lfemur -8.7653 -0.464035 -18.2932
ltibia 46.6085
lfoot 14.2095 -6.44425
ltoes -1.74201
502
root -5.30619 18.1561 -2.5789 11.3244 29.5628 -1.2568
lowerback -5.95475 -1.29817 -4.20947
upperback -5.99077 -1.47532 3.00863
thorax -2.69024 -0.502518 5.43998
lowerneck -3.35089 9.98892 6.44588
upperneck 9.45297 14.3182 -11.3278
head 4.666 6.82015 -3.65325
rclavicle 5.11871e-015 -1.19271e-014
rhumerus -56.9685 16.6298 -88.0994
rradius 42.8318
rwrist -9.69114
rhand -10.8343 -33.373
rfingers 7.12502
rthumb 15.1801 -62.7962
lclavicle 5.11871e-015 -1.19271e-014
lhumerus -53.9596 -19.7717 93.9958
lradius 70.7895
lwrist 4.21686
lhand -18.0913 -8.41503
lfingers 7.12502
lthumb 8.18222 21.4065
rfemur -35.4339 1.89339 21.2113
rtibia 31.3484
rfoot -7.5879 -13.9477
rtoes -12.9461
lfemur -10.3014 -0.347708 -17.3682
ltibia 49.1769
lfoot 14.6412 -6.33996
ltoes -2.71411
503
root -5.27925 18.1595 -2.43083 11.3142 29.8134 -1.61198
lowerback -5.9687 -1.23326 -3.97193
upperback -6.06594 -1.39243 3.09362
thorax -2.77343 -0.462474 5.39859
lowerneck -3.25876 9.89337 6.63928
upperneck 9.40665 14.1933 -11.4841
head 4.6499 6.76345 -3.74567
rclavicle 1.09829e-014 1.55052e-014
rhumerus -56.7458 16.7738 -88.0498
rradius 42.8418
rwrist -9.913
rhand -10.8888 -33.7338
rfingers 7.12502
rthumb 15.1276 -63.1609
lclavicle 1.09829e-014 1.55052e-014
lhumerus -54.3743 -19.4193 94.0934
lradius 69.9696
lwrist 4.19948
lhand -18.4238 -8.48665
lfingers 7.12502
lthumb 7.86128 21.3472
rfemur -35.141 1.74314 21.8228
rtibia 31.4696
rfoot -8.09514 -14.1021
rtoes -13.1568
lfemur -12.0144 -0.230562 -16.8115
ltibia 51.7033
lfoot 14.0813 -6.29649
ltoes -6.59631
504
root -5.24444 18.1722 -2.27854 11.4927 29.9871 -1.5158
lowerback -6.01287 -1.14812 -4.04511
upperback -6.14612 -1.27394 3.02201
thorax -2.84797 -0.39701 5.37032
lowerneck -3.29037 9.79356 6.47028
upperneck 9.60397 14.0476 -11.1603
head 4.66597 6.6947 -3.63023
rclavicle -1.17531e-014 -2.94201e-014
rhumerus -56.5906 16.6265 -87.8903
rradius 42.832
rwrist -9.59966
rhand -10.571 -33.9804
rfingers 7.12502
rthumb 15.4337 -63.3842
lclavicle -1.17531e-014 -2.94201e-014
lhumerus -54.7969 -19.1012 94.2269
lradius 69.0113
lwrist 4.16514
lhand -18.6267 -8.74688
lfingers 7.12502
lthumb 7.66547 21.0942
rfemur -34.7928 1.49418 21.9579
rtibia 31.5864
rfoot -8.81934 -13.9771
rtoes -12.3879
lfemur -13.5802 -0.113512 -16.7941
ltibia 54.1061
lfoot 12.4994 -5.86761
ltoes -11.225
505
root -5.20752 18.1871 -2.13034 11.5366 30.1106 -1.30952
lowerback -5.90875 -1.06573 -4.21232
upperback -6.12614 -1.16352 2.93587
thorax -2.89834 -0.336319 5.38083
lowerneck -3.48069 9.79195 6.16848
upperneck 9.7378 14.0203 -10.7493
head 4.68538 6.67923 -3.4513
rclavicle 5.43428e-014 -1.55052e-014
rhumerus -56.4555 16.5602 -87.7119
rradius 42.9625
rwrist -9.30766
rhand -10.3989 -33.8303
rfingers 7.12502
rthumb 15.5995 -63.2213
lclavicle 5.43428e-014 -1.55052e-014
lhumerus -55.121 -18.6254 94.2792
lradius 68.086
lwrist 4.09132
lhand -18.3792 -8.8362
lfingers 7.12502
lthumb 7.90439 20.996
rfemur -34.2236 1.32525 21.9473
rtibia 31.6737
rfoot -9.52949 -13.8842
rtoes -11.9279
lfemur -14.9319 0.05743 -16.9547
ltibia 56.3488
lfoot 10.3775 -5.47022
ltoes -13.9215
506
root -5.17617 18.1975 -1.99007 11.4224 30.2709 -1.42376
lowerback -5.81087 -0.993847 -4.15039
upperback -6.05828 -1.07345 2.94047
thorax -2.89326 -0.295199 5.35428
lowerneck -3.74446 9.80686 6.11831
upperneck 9.85801 14.0312 -10.6302
head 4.75527 6.67569 -3.39079
rclavicle 5.60821e-014 6.36111e-015
rhumerus -56.1716 16.6241 -87.5894
rradius 43.1474
rwrist -9.43807
rhand -10.7608 -33.5316
rfingers 7.12502
rthumb 15.2509 -62.9494
lclavicle 5.60821e-014 6.36111e-015
lhumerus -54.9615 -18.2671 94.2138
lradius 66.7891
lwrist 4.21593
lhand -18.0563 -8.76914
lfingers 7.12502
lthumb 8.21595 21.0511
rfemur -33.6191 1.48982 22.1816
rtibia 31.6702
rfoot -10.0733 -14.2082
rtoes -11.5553
lfemur -16.3899 0.318312 -16.7907
ltibia 58.4446
lfoot 8.15985 -5.31675
ltoes -15.7557
507
root -5.14164 18.215 -1.84544 11.2627 30.4129 -1.72338
lowerback -5.91356 -0.896398 -3.96308
upperback -5.96439 -0.945626 2.99101
thorax -2.75388 -0.242609 5.3027
lowerneck -3.82227 9.75179 6.18989
upperneck 9.84065 13.9551 -10.7039
head 4.76672 6.63513 -3.42631
rclavicle -1.15544e-014 4.17448e-014
rhumerus -55.787 16.5855 -87.3635
rradius 43.3157
rwrist -9.47091
rhand -10.6788 -33.5981
rfingers 7.12502
rthumb 15.3299 -63.0099
lclavicle -1.15544e-014 4.17448e-014
lhumerus -54.6796 -18.0163 94.1979
lradius 65.2683
lwrist 4.34281
lhand -17.9869 -8.83163
lfingers 7.12502
lthumb 8.283 20.986
rfemur -32.9985 1.85263 22.5398
rtibia 31.5623
rfoot -10.6021 -14.6414
rtoes -10.8794
lfemur -17.8765 0.597119 -16.4882
ltibia 60.3491
lfoot 6.15848 -4.6507
ltoes -17.4763
508
root -5.10185 18.2364 -1.69952 11.1656 30.5493 -1.77253
lowerback -5.93254 -0.779514 -3.93775
upperback -5.88559 -0.791178 2.94724
thorax -2.67985 -0.170687 5.24694
lowerneck -3.68776 9.62959 6.23186
upperneck 9.61968 13.777 -10.7867
head 4.66974 6.55602 -3.48373
rclavicle -2.50717e-014 -2.18663e-014
rhumerus -55.5481 16.6579 -87.3161
rradius 43.3412
rwrist -9.49456
rhand -10.5804 -33.5818
rfingers 7.12502
rthumb 15.4247 -62.9863
lclavicle -2.50717e-014 -2.18663e-014
lhumerus -54.5473 -17.7951 94.2301
lradius 63.7757
lwrist 4.33437
lhand -18.3558 -8.88806
lfingers 7.12502
lthumb 7.92691 20.9433
rfemur -32.2896 1.97384 22.6974
rtibia 31.4369
rfoot -11.1271 -14.8366
rtoes -10.4479
lfemur -19.1908 0.67723 -16.508
ltibia 61.9691
lfoot 4.57619 -3.63073
ltoes -18.0866
509
root -5.06166 18.255 -1.55829 11.0434 30.6643 -1.74078
lowerback -5.6578 -0.642188 -3.88237
upperback -5.95512 -0.619219 2.82549
thorax -2.92716 -0.0805162 5.09704
lowerneck -3.39538 9.46669 6.08366
upperneck 9.52139 13.5269 -10.4789
head 4.53682 6.45523 -3.40668
rclavicle 3.3371e-014 1.86858e-014
rhumerus -55.5488 16.8718 -87.5372
rradius 43.2409
rwrist -9.70723
rhand -10.9786 -33.2757
rfingers 7.12502
rthumb 15.0411 -62.7093
lclavicle 3.3371e-014 1.86858e-014
lhumerus -54.8101 -17.4637 94.2091
lradius 62.44
lwrist 4.23448
lhand -18.8065 -8.81086
lfingers 7.12502
lthumb 7.49191 21.0365
rfemur -31.5252 1.95656 22.8211
rtibia 31.3474
rfoot -12.2486 -14.8815
rtoes -7.32761
lfemur -20.3401 0.736037 -16.6213
ltibia 63.3038
lfoot 3.53745 -2.81483
ltoes -17.4492
510
root -5.0185 18.2789 -1.41818 11.0892 30.7324 -1.48952
lowerback -5.39068 -0.56122 -4.02663
upperback -6.11442 -0.516725 2.66582
thorax -3.25631 -0.0143362 5.01839
lowerneck -2.96191 9.35317 5.96166
upperneck 9.42486 13.341 -10.104
head 4.38479 6.3936 -3.31475
rclavicle 2.62396e-014 1.19271e-014
rhumerus -55.6089 17.0576 -87.6588
rradius 43.3302
rwrist -9.68114
rhand -11.0502 -33.112
rfingers 7.12502
rthumb 14.9721 -62.5508
lclavicle 2.62396e-014 1.19271e-014
lhumerus -55.4517 -16.8537 94.0855
lradius 61.4813
lwrist 4.00201
lhand -18.8431 -8.58609
lfingers 7.12502
lthumb 7.45659 21.2625
rfemur -30.8462 1.83332 22.7665
rtibia 31.318
rfoot -13.2881 -14.8531
rtoes -5.29954
lfemur -21.473 0.766234 -16.9651
ltibia 64.3932
lfoot 2.95674 -1.95655
ltoes -17.2243
511
root -4.96999 18.3045 -1.29161 11.4699 30.9245 -1.13421
lowerback -5.48661 -0.575823 -4.17395
upperback -6.20144 -0.530988 2.50486
thorax -3.29308 -0.0159584 4.93273
lowerneck -2.83352 9.33045 6.06844
upperneck 9.37194 13.2951 -10.041
head 4.34606 6.38258 -3.32301
rclavicle -8.27193e-014 -3.37934e-014
rhumerus -55.4085 17.1394 -87.542
rradius 43.6426
rwrist -9.30978
rhand -10.8404 -33.056
rfingers 7.12502
rthumb 15.1742 -62.4796
lclavicle -8.27193e-014 -3.37934e-014
lhumerus -55.6029 -16.2389 93.8677
lradius 60.3387
lwrist 3.83326
lhand -18.5914 -8.35749
lfingers 7.12502
lthumb 7.69959 21.4823
rfemur -30.4045 1.47192 22.6025
rtibia 31.1331
rfoot -13.0168 -14.8479
rtoes -8.98609
lfemur -22.9601 0.552827 -17.4718
ltibia 65.3851
lfoot 2.23064 -1.26158
ltoes -18.1606
512
root -4.91422 18.3279 -1.18025 11.9015 31.2492 -0.914161
lowerback -5.86601 -0.598807 -3.97013
upperback -6.09049 -0.558651 2.32085
thorax -2.96147 -0.0532213 4.61883
lowerneck -3.11058 9.3066 6.13642
upperneck 9.37205 13.248 -10.0651
head 4.39465 6.3507 -3.32995
rclavicle -9.35655e-014 2.54444e-014
rhumerus -54.795 17.065 -87.2657
rradius 44.0007
rwrist -9.0212
rhand -10.9757 -33.1551
rfingers 7.12502
rthumb 15.0439 -62.5885
lclavicle -9.35655e-014 2.54444e-014
lhumerus -55.2039 -15.8362 93.5465
lradius 58.9581
lwrist 3.70931
lhand -18.3214 -8.42144
lfingers 7.12502
lthumb 7.96016 21.4087
rfemur -30.0466 0.877176 22.5517
rtibia 30.8516
rfoot -12.7126 -14.7059
rtoes -12.002
lfemur -24.6143 0.234762 -17.9041
ltibia 66.2641
lfoot 0.666905 -1.30513
ltoes -19.3456
513
root -4.90208 18.3363 -1.01651 10.8435 30.8832 -1.99126
lowerback -5.37188 -0.32397 -3.64044
upperback -5.98015 -0.214195 2.56909
thorax -3.15838 0.114752 4.70426
lowerneck -3.17646 9.28291 6.13624
upperneck 9.52941 13.2128 -9.93283
head 4.44147 6.33347 -3.28672
rclavicle -1.13804e-014 -1.94809e-014
rhumerus -54.7137 16.9851 -87.1656
rradius 44.4177
rwrist -8.96899
rhand -11.311 -33.3988
rfingers 7.12502
rthumb 14.7209 -62.8561
lclavicle -1.13804e-014 -1.94809e-014
lhumerus -55.4932 -15.4838 93.2831
lradius 57.8381
lwrist 3.47342
lhand -18.2964 -8.75704
lfingers 7.12502
lthumb 7.98424 21.0722
rfemur -28.8245 2.5938 23.5395
rtibia 30.5037
rfoot -13.1589 -15.8397
rtoes -10.6268
lfemur -25.4143 1.04006 -16.8377
ltibia 67.0777
lfoot -1.83742 -2.92329
ltoes -19.9303
514
root -4.87475 18.3453 -0.876953 10.3147 30.7537 -2.3803
lowerback -4.97292 -0.2121 -3.61551
upperback -5.92092 -0.0752467 2.69715
thorax -3.33531 0.188997 4.82848
lowerneck -3.18662 9.32548 5.95593
upperneck 9.56513 13.2634 -9.74507
head 4.43366 6.35954 -3.19824
rclavicle -9.47954e-015 0
rhumerus -54.5249 17.13 -86.9439
rradius 44.8966
rwrist -8.96877
rhand -11.3499 -33.6291
rfingers 7.12502
rthumb 14.6834 -63.0892
lclavicle -9.47954e-015 0
lhumerus -55.6681 -14.9212 93.0137
lradius 56.709
lwrist 3.08944
lhand -18.2738 -8.92637
lfingers 7.12502
lthumb 8.00608 20.902
rfemur -27.8018 3.5455 23.939
rtibia 30.1623
rfoot -13.674 -16.5367
rtoes -9.24663
lfemur -26.3167 1.35504 -16.5384
ltibia 67.6381
lfoot -2.05361 -2.19071
ltoes -16.5847
515
root -4.83333 18.3474 -0.742725 10.4034 30.6951 -2.13079
lowerback -4.9963 -0.158352 -3.93359
upperback -5.92041 0.00315206 2.62878
thorax -3.3333 0.239007 4.9393
lowerneck -3.07155 9.26273 5.6822
upperneck 9.57343 13.166 -9.45422
head 4.37147 6.31897 -3.08336
rclavicle 2.40032e-014 1.98785e-015
rhumerus -54.3365 17.2939 -86.7646
rradius 45.432
rwrist -9.02987
rhand -11.4734 -33.7768
rfingers 7.12502
rthumb 14.5644 -63.2454
lclavicle 2.40032e-014 1.98785e-015
lhumerus -55.7554 -14.3919 92.7892
lradius 55.3975
lwrist 2.87693
lhand -17.6475 -7.869
lfingers 7.12502
lthumb 8.61054 21.9354
rfemur -27.0943 4.01935 23.7461
rtibia 29.8612
rfoot -14.028 -16.9108
rtoes -9.33156
lfemur -27.4486 1.43308 -16.9732
ltibia 68.0032
lfoot -1.2887 -1.34308
ltoes -10.2595
